<?xml version="1.0" encoding="utf-8"?>
<!-- Generator: Adobe Illustrator 22.0.1, SVG Export Plug-In . SVG Version: 6.00 Build 0)  -->
<svg version="1.1" id="Capa_1" xmlns="http://www.w3.org/2000/svg" xmlns:xlink="http://www.w3.org/1999/xlink" x="0px" y="0px"
	 viewBox="0 0 461.8 461.8" style="enable-background:new 0 0 461.8 461.8;" xml:space="preserve">
<style type="text/css">
	.st0{fill:#606060;}
</style>
<g>
	<g>
		<path class="st0" d="M442,444.8V144.2c0-4.8-2-9.4-5.4-12.5L299.8,4.5c-3.1-2.8-7.4-4.5-11.6-4.5H76.5c-9.3,0-17,7.7-17,17v189.8
			c0,9.4,7.7,17,17,17s17-7.6,17-17V34h172.8v130.3c0,9.4,7.6,17,17,17h121.8c0.9,0,2,0,2.8-0.3v246.8H93.5v-68c0-9.4-7.7-17-17-17
			s-17,7.6-17,17v85c0,9.4,7.7,17,17,17H425C434.4,461.8,442,454.2,442,444.8z M300.3,51.6l102.9,95.8H300.3V51.6z"/>
		<path class="st0" d="M19.8,280.5c0,9.4,7.6,17,17,17h177.1l-54.7,48.7c-7.1,6.2-7.6,17-1.4,24.1c3.4,3.7,7.9,5.7,12.8,5.7
			c4,0,7.9-1.4,11.3-4.3l88.4-78.8c3.7-3.1,5.7-7.9,5.7-12.8s-2-9.4-5.7-12.8l-88.4-78.8c-7.1-6.2-17.9-5.7-24.1,1.4
			c-6.2,7.1-5.7,17.9,1.4,24.1l55.5,49.3H36.8C27.5,263.5,19.8,271.1,19.8,280.5z"/>
	</g>
</g>
</svg>
